# xmcd CD database file
#
# Track frame offsets:
#	150
#	22907
#	46545
#	79495
#	117855
#	128885
#	141560
#	152895
#	199482
#	215415
#	236315
#	267480
#	311127
#
# Disc length: 4561 seconds
#
# Revision: 4
# Processed by: cddbd v1.4PL0 Copyright (c) Steve Scherf et al.
# Submitted via: CDex 1.50beta9
#
DISCID=bc11cf0d
DTITLE=Various Artist - The Greatest Jazz Concert In The World - Disc 1
DYEAR=1975
DGENRE=Jazz
TTITLE0=Smedley - Peterson, Oscar Trio
TTITLE1=Someday My Prince Will Come - Peterson, Oscar Trio
TTITLE2=Daytrain - Peterson, Oscar Trio
TTITLE3=Now's The Time - Peterson, Oscar Trio
TTITLE4=Memories Of You - Jam Session
TTITLE5=Misty - Jam Session
TTITLE6=I Can't Get Started - Jam Session
TTITLE7=Wee - Jam Session
TTITLE8=Moonglow - Coleman Hawkins - Peterson, Oscar Trio
TTITLE9=Sweet Georgia Brown - Coleman Hawkins - Peterson, Oscar Trio 
TTITLE10=C-Jam Blues - Jam Session
TTITLE11=Woman You Must Be Crazy - T-Bone Walker
TTITLE12=Stormy Monday 
EXTD=OSCAR PETERSON TRIO: \n\nT-BONE WALKER WITH CLARK TERRY, JOHNNY HODGES, PAUL GONSALVES, OSCAR PETERSON, SAM JONES, BOBBY DURHAM:\n\n Also, Johnny Hodges, Benny Carter, Paul Gonsalves, Clark Terry, Ella Fitzgerald, Zoot Sims, etc. YEAR: 1975
EXTT0=OSCAR PETERSON TRIO: 
EXTT1=OSCAR PETERSON TRIO: 
EXTT2=OSCAR PETERSON TRIO: 
EXTT3=OSCAR PETERSON TRIO: 
EXTT4=Sims, Zoot
EXTT5=Terry, Clark
EXTT6=Carter, Benny
EXTT7=Terry, Clark
EXTT8=COLEMAN HAWKINS WITH THE OSCAR PETERSON TRIO 
EXTT9=COLEMAN HAWKINS WITH THE OSCAR PETERSON TRIO 
EXTT10=
EXTT11=
EXTT12=
PLAYORDER=
